HIERARCHY
ROOT joint_Root
{
	OFFSET 0.0 0.0 0.0
	CHANNELS 6 Xposition Yposition Zposition Zrotation Xrotation Yrotation 
	JOINT Hips
	{
		OFFSET 4.5925 91.4895 -427.239
		CHANNELS 6 Xposition Yposition Zposition Zrotation Xrotation Yrotation 
		JOINT Spine
		{
			OFFSET 15.7357 0.0 0.0
			CHANNELS 6 Xposition Yposition Zposition Zrotation Xrotation Yrotation 
			JOINT Chest
			{
				OFFSET 8.98455 -0.406207 0.0
				CHANNELS 6 Xposition Yposition Zposition Zrotation Xrotation Yrotation 
				JOINT Neck
				{
					OFFSET 16.3773 0.0 0.0
					CHANNELS 6 Xposition Yposition Zposition Zrotation Xrotation Yrotation 
					JOINT Head
					{
						OFFSET 6.45672 0.0 0.0
						CHANNELS 6 Xposition Yposition Zposition Zrotation Xrotation Yrotation 
						End Site
						{
							OFFSET 0.0 0.0 0.0
						}
					}
				}
				JOINT Shoulder_L
				{
					OFFSET 12.9942 -0.242716 4.98039
					CHANNELS 6 Xposition Yposition Zposition Zrotation Xrotation Yrotation 
					JOINT UpperArm_L
					{
						OFFSET 5.34809 0.0 0.0
						CHANNELS 6 Xposition Yposition Zposition Zrotation Xrotation Yrotation 
						JOINT LowerArm_L
						{
							OFFSET 24.3286 1.87007e-05 0.0
							CHANNELS 6 Xposition Yposition Zposition Zrotation Xrotation Yrotation 
							JOINT Hand_L
							{
								OFFSET 22.2916 0.0 0.0
								CHANNELS 6 Xposition Yposition Zposition Zrotation Xrotation Yrotation 
								End Site
								{
									OFFSET 0.0 0.0 0.0
								}
							}
						}
					}
				}
				JOINT Shoulder_R
				{
					OFFSET 12.9945 -0.242716 -4.98039
					CHANNELS 6 Xposition Yposition Zposition Zrotation Xrotation Yrotation 
					JOINT UpperArm_R
					{
						OFFSET -5.34813 0.0 0.0
						CHANNELS 6 Xposition Yposition Zposition Zrotation Xrotation Yrotation 
						JOINT LowerArm_R
						{
							OFFSET -24.3289 0.000322201 0.0
							CHANNELS 6 Xposition Yposition Zposition Zrotation Xrotation Yrotation 
							JOINT Hand_R
							{
								OFFSET -22.2915 -0.000108084 0.0
								CHANNELS 6 Xposition Yposition Zposition Zrotation Xrotation Yrotation 
								End Site
								{
									OFFSET 0.0 0.0 0.0
								}
							}
						}
					}
				}
			}
		}
		JOINT UpperLeg_L
		{
			OFFSET -2.19248 -6.46944 0.0
			CHANNELS 6 Xposition Yposition Zposition Zrotation Xrotation Yrotation 
			JOINT LowerLeg_L
			{
				OFFSET 39.0811 0.0 -1.23785e-05
				CHANNELS 6 Xposition Yposition Zposition Zrotation Xrotation Yrotation 
				JOINT Foot_L
				{
					OFFSET 40.9854 0.0 -1.26872e-05
					CHANNELS 6 Xposition Yposition Zposition Zrotation Xrotation Yrotation 
					JOINT Toes_L
					{
						OFFSET 11.7543 0.0 0.0
						CHANNELS 6 Xposition Yposition Zposition Zrotation Xrotation Yrotation 
						End Site
						{
							OFFSET 0.0 0.0 0.0
						}
					}
				}
			}
		}
		JOINT UpperLeg_R
		{
			OFFSET -2.19251 6.46944 0.0
			CHANNELS 6 Xposition Yposition Zposition Zrotation Xrotation Yrotation 
			JOINT LowerLeg_R
			{
				OFFSET -39.0811 -0.00228153 -0.0401928
				CHANNELS 6 Xposition Yposition Zposition Zrotation Xrotation Yrotation 
				JOINT Foot_R
				{
					OFFSET -40.9854 0.0 0.0
					CHANNELS 6 Xposition Yposition Zposition Zrotation Xrotation Yrotation 
					JOINT Toes_R
					{
						OFFSET -11.7543 0.0 0.0
						CHANNELS 6 Xposition Yposition Zposition Zrotation Xrotation Yrotation 
						End Site
						{
							OFFSET 0.0 0.0 0.0
						}
					}
				}
			}
		}
	}
}
MOTION
Frames:	4
Frame Time:	0.0333333
0.000000 0.000000 0.000000 0.000000 0.000000 -0.000000 4.198270 90.610500 -0.984728 91.947000 -8.209500 15.346800 15.735700 0.000005 -0.000001 93.028700 80.703200 -98.052400 8.984550 -0.406207 -0.000000 10.859300 0.838934 -10.122200 16.377300 -0.000001 -0.000001 30.008500 -0.101814 -1.690510 6.456720 -0.000001 -0.000000 14.182300 1.877490 -9.041620 12.994200 -0.242716 4.980390 -91.439600 5.083890 -74.166400 5.348090 -0.000007 -0.000001 -61.871300 28.847000 -14.053000 24.328600 0.000019 0.000005 11.943400 26.239900 -25.567300 22.291600 -0.000001 0.000005 10.161300 5.275850 0.739485 12.994500 -0.242716 -4.980390 91.391800 -4.675020 -73.401100 -5.348130 -0.000001 -0.000004 -36.576000 -46.112900 -83.632400 -24.328900 0.000322 -0.000009 7.424010 2.217820 -73.462700 -22.291500 -0.000108 -0.000004 29.872800 5.459520 -4.983530 -2.192480 -6.469440 -0.000000 -178.643000 -18.571100 5.495590 39.081100 -0.000007 -0.000012 -0.030072 0.052308 29.895500 40.985400 -0.000006 -0.000013 4.529600 5.007690 -70.614500 11.754300 -0.000000 0.000003 -0.000228 -0.002063 -16.655100 -2.192510 6.469440 -0.000001 168.189000 13.399600 -176.650000 -39.081100 -0.002282 -0.040193 -0.128410 0.210913 31.983500 -40.985400 0.000008 0.000006 2.221690 16.644200 -70.263900 -11.754300 -0.000006 -0.000006 -0.002862 -0.039026 -18.160200
0.000000 0.000000 0.000000 0.000000 0.000000 -0.000000 4.156420 90.616900 -1.013650 91.950100 -7.946080 15.300800 15.735700 0.000005 -0.000001 93.155700 80.705800 -98.189200 8.984550 -0.406207 -0.000000 10.854100 0.879469 -10.145700 16.377300 -0.000001 -0.000001 29.993800 -0.147900 -1.539010 6.456720 -0.000001 -0.000000 14.162400 1.784260 -9.037350 12.994200 -0.242716 4.980390 -91.436000 5.067930 -74.157000 5.348090 -0.000007 -0.000001 -62.078700 28.835100 -13.663100 24.328600 0.000019 0.000005 11.777700 26.262900 -25.230100 22.291600 -0.000001 0.000005 10.115700 5.274200 0.784506 12.994500 -0.242716 -4.980390 91.430000 -4.772600 -73.298700 -5.348130 -0.000001 -0.000004 -35.465600 -45.766300 -83.787100 -24.328900 0.000322 -0.000009 7.608170 2.069050 -74.878000 -22.291500 -0.000108 -0.000004 29.754000 5.464030 -5.148950 -2.192480 -6.469440 -0.000000 -178.662000 -18.457700 5.411060 39.081100 -0.000007 -0.000012 -0.028271 0.049169 29.898200 40.985400 -0.000006 -0.000013 4.550100 5.163290 -70.577500 11.754300 -0.000000 0.000003 -0.000230 -0.002079 -16.655700 -2.192510 6.469440 -0.000001 168.173000 13.583200 -176.634000 -39.081100 -0.002282 -0.040193 -0.127745 0.210010 31.963500 -40.985400 0.000008 0.000006 2.184530 16.556600 -70.250700 -11.754300 -0.000006 -0.000006 -0.002857 -0.038970 -18.157900
0.000000 0.000000 0.000000 0.000000 0.000000 -0.000000 4.123480 90.619200 -1.030160 91.967200 -7.632470 15.292100 15.735700 0.000005 -0.000001 93.350400 80.686500 -98.405100 8.984550 -0.406207 -0.000000 10.892300 0.942024 -10.194300 16.377300 -0.000001 -0.000001 30.011300 -0.186394 -1.362270 6.456720 -0.000001 -0.000000 14.136300 1.661950 -9.090400 12.994200 -0.242716 4.980390 -91.431700 5.059850 -74.178500 5.348090 -0.000007 -0.000001 -62.262600 28.607600 -13.233300 24.328600 0.000019 0.000005 11.751500 26.650500 -24.880900 22.291600 -0.000001 0.000005 10.010000 5.273680 0.798566 12.994500 -0.242716 -4.980390 91.444000 -4.788770 -73.198000 -5.348130 -0.000001 -0.000004 -34.515200 -45.587600 -83.746900 -24.328900 0.000322 -0.000009 7.824110 2.004040 -75.725300 -22.291500 -0.000108 -0.000004 29.617800 5.468750 -5.324080 -2.192480 -6.469440 -0.000000 -178.694000 -18.298200 5.371760 39.081100 -0.000007 -0.000012 -0.028880 0.050215 29.905100 40.985400 -0.000006 -0.000013 4.573540 5.323020 -70.553300 11.754300 -0.000000 0.000003 -0.000213 -0.001950 -16.651000 -2.192510 6.469440 -0.000001 168.129000 13.757000 -176.581000 -39.081100 -0.002282 -0.040193 -0.128108 0.210427 31.983600 -40.985400 0.000008 0.000006 2.285800 16.417000 -70.318400 -11.754300 -0.000006 -0.000006 -0.002980 -0.040379 -18.215200
0.000000 0.000000 0.000000 0.000000 0.000000 -0.000000 4.089770 90.624900 -1.039060 91.967000 -7.365050 15.252900 15.735700 0.000005 -0.000001 93.556800 80.678700 -98.628000 8.984550 -0.406207 -0.000000 10.907200 1.008320 -10.233800 16.377300 -0.000001 -0.000001 29.979400 -0.165397 -1.328100 6.456720 -0.000001 -0.000000 14.143700 1.637640 -9.094190 12.994200 -0.242716 4.980390 -91.430400 5.030970 -74.106600 5.348090 -0.000007 -0.000001 -62.365600 28.382200 -12.876400 24.328600 0.000019 0.000005 11.547300 26.899600 -24.303400 22.291600 -0.000001 0.000005 10.246800 5.273860 0.793713 12.994500 -0.242716 -4.980390 91.464300 -4.838050 -73.138200 -5.348130 -0.000001 -0.000004 -33.998900 -45.460000 -83.636700 -24.328900 0.000322 -0.000009 7.876440 1.986450 -75.936900 -22.291500 -0.000108 -0.000004 29.465400 5.473700 -5.509420 -2.192480 -6.469440 -0.000000 -178.718000 -18.154600 5.308240 39.081100 -0.000007 -0.000012 -0.027627 0.048039 29.903100 40.985400 -0.000006 -0.000013 4.595260 5.471970 -70.527200 11.754300 -0.000000 0.000003 -0.000249 -0.002228 -16.661100 -2.192510 6.469440 -0.000001 168.104000 13.953300 -176.543000 -39.081100 -0.002282 -0.040193 -0.123513 0.203242 31.961700 -40.985400 0.000008 0.000006 2.272200 16.343000 -70.322800 -11.754300 -0.000006 -0.000006 -0.002760 -0.037862 -18.112800
